<svg xmlns="http://www.w3.org/2000/svg" xmlns:xlink="http://www.w3.org/1999/xlink" width="500" zoomAndPan="magnify" viewBox="0 0 375 374.999991" height="500" preserveAspectRatio="xMidYMid meet" version="1.0"><defs><g/><clipPath id="8b63ce80dc"><path d="M 100.53125 87.75 L 299.28125 87.75 L 299.28125 277.5 L 100.53125 277.5 Z M 100.53125 87.75 " clip-rule="nonzero"/></clipPath><clipPath id="a8d924f9aa"><path d="M 298.859375 188.125 C 298.476562 186.953125 297.695312 186.234375 296.863281 185.917969 C 295.820312 185.519531 294.671875 185.777344 293.554688 186.078125 C 293.53125 185.882812 293.492188 185.691406 293.429688 185.507812 C 293.140625 184.644531 292.464844 184.359375 291.8125 184.375 C 290.394531 184.40625 288.894531 185.226562 287.617188 186.394531 C 287.015625 186.949219 286.476562 187.589844 285.996094 188.316406 C 285.496094 189.042969 285.058594 189.851562 284.679688 190.734375 C 283.949219 192.480469 283.300781 194.453125 282.964844 196.398438 C 281.175781 197.3125 279.320312 198.160156 277.476562 198.691406 L 277.476562 197.773438 C 281.382812 193.925781 284.402344 188.195312 285.789062 182.003906 L 285.949219 181.21875 C 287.15625 180.480469 288.335938 179.316406 289.304688 177.984375 C 290.34375 176.539062 291.164062 174.898438 291.578125 172.910156 C 292.023438 170.765625 292.085938 168.453125 291.609375 166.433594 C 291.410156 165.566406 291.027344 164.695312 290.398438 164.433594 C 290.191406 164.347656 289.984375 164.335938 289.78125 164.378906 C 289.390625 161.859375 288.75 159.179688 286.9375 158.308594 C 285.152344 157.453125 283.359375 159.398438 282.808594 161.882812 C 282.539062 163.152344 282.457031 164.445312 282.550781 165.71875 C 281.945312 165.667969 281.347656 165.9375 280.863281 166.753906 C 280.011719 168.203125 279.917969 170.460938 280.191406 172.128906 C 280.476562 174.042969 281.152344 175.601562 282.027344 177.03125 C 282.90625 178.472656 283.839844 179.773438 284.949219 180.84375 C 284.796875 181.605469 284.632812 182.359375 284.433594 183.109375 C 284.222656 183.859375 283.996094 184.597656 283.746094 185.328125 C 283.496094 186.054688 283.226562 186.773438 282.941406 187.476562 C 282.644531 188.179688 282.316406 188.871094 281.980469 189.542969 C 280.761719 192.011719 279.179688 194.238281 277.476562 196.0625 L 277.476562 182.25 C 277.574219 182.117188 277.675781 181.988281 277.773438 181.855469 C 278.113281 181.371094 278.4375 180.867188 278.753906 180.351562 C 279.503906 179.105469 280.234375 177.777344 280.867188 176.421875 C 281.195312 175.734375 280.816406 175.058594 280.292969 175.292969 C 279.335938 175.71875 278.394531 176.234375 277.476562 176.832031 L 277.476562 153.875 C 277.667969 153.703125 277.855469 153.523438 278.039062 153.335938 C 279.503906 151.828125 280.785156 149.832031 281.789062 147.683594 C 282.398438 146.382812 282.941406 145.015625 283.441406 143.628906 C 283.691406 142.925781 283.238281 142.308594 282.742188 142.589844 C 281.078125 143.539062 279.488281 144.789062 278.027344 146.28125 C 277.839844 146.472656 277.660156 146.679688 277.476562 146.878906 L 277.476562 138.566406 C 277.636719 138.324219 277.796875 138.074219 277.941406 137.808594 C 278.34375 137.085938 278.617188 136.265625 278.808594 135.394531 C 279.261719 133.355469 279.246094 131.097656 278.753906 129.082031 C 278.542969 128.234375 278.214844 127.335938 277.617188 126.90625 C 277.316406 126.6875 277.011719 126.632812 276.714844 126.683594 C 276.234375 124.285156 275.484375 121.792969 273.660156 120.875 C 271.855469 119.96875 270.144531 121.816406 269.667969 124.140625 C 269.417969 125.355469 269.40625 126.613281 269.566406 127.84375 C 268.945312 127.785156 268.347656 128.050781 267.90625 128.863281 C 267.871094 128.925781 267.847656 128.996094 267.816406 129.058594 L 230.945312 108.945312 L 210.464844 91.574219 L 210.238281 91.382812 L 202.28125 93.3125 L 192.496094 87.972656 L 192.214844 87.820312 L 165.996094 102.121094 L 134.578125 109.75 L 134.300781 109.816406 L 128.53125 122.554688 L 107.257812 134.160156 L 106.953125 134.328125 L 106.953125 170.214844 L 100.53125 184.398438 L 106.953125 198.578125 L 106.953125 227.398438 L 124.28125 236.851562 L 134.183594 258.71875 L 134.300781 258.980469 L 189.34375 272.339844 L 191.933594 273.753906 L 192.214844 273.90625 L 193.316406 273.304688 L 209.945312 277.34375 L 210.238281 277.414062 L 254.296875 240.042969 L 277.167969 227.566406 L 277.476562 227.398438 L 277.476562 213.5 C 277.902344 213.683594 278.332031 213.855469 278.765625 214.011719 C 279.183594 214.167969 279.734375 213.378906 279.574219 212.8125 C 279.039062 211.03125 278.324219 209.414062 277.476562 207.976562 L 277.476562 200.183594 C 279.359375 199.640625 281.242188 198.804688 283.132812 197.878906 C 283.988281 199.070312 284.96875 200.070312 286.046875 200.875 C 287.167969 201.71875 288.328125 202.394531 289.703125 202.433594 C 290.984375 202.46875 292.46875 201.890625 293.632812 200.46875 C 294.238281 199.710938 294.710938 198.628906 294.699219 197.527344 C 294.695312 197.234375 294.664062 196.964844 294.613281 196.707031 C 296.230469 196.082031 297.871094 194.703125 298.695312 192.292969 C 299.199219 190.871094 299.265625 189.371094 298.859375 188.125 Z M 289.886719 165.898438 C 290.316406 165.886719 290.515625 166.640625 290.628906 167.132812 C 291.023438 168.785156 290.941406 170.757812 290.585938 172.507812 C 290.273438 174.113281 289.609375 175.5 288.777344 176.6875 C 288.042969 177.726562 287.203125 178.65625 286.28125 179.351562 C 286.492188 178.058594 286.574219 176.761719 286.625 175.472656 C 286.667969 174.179688 286.644531 172.898438 286.519531 171.644531 C 287.085938 170.023438 287.832031 168.507812 288.664062 167.164062 C 288.964844 166.6875 289.414062 165.910156 289.886719 165.898438 Z M 283.660156 163.089844 C 283.78125 162.082031 284.082031 161.132812 284.648438 160.402344 C 285.136719 159.777344 285.773438 159.457031 286.394531 159.691406 C 287.066406 159.945312 287.617188 160.648438 287.964844 161.496094 C 288.402344 162.554688 288.613281 163.78125 288.773438 165.003906 C 288.652344 165.128906 288.539062 165.261719 288.433594 165.402344 C 287.5 166.625 286.75 168.128906 286.085938 169.714844 C 285.75 168.617188 285.234375 167.660156 284.5625 166.921875 C 284.300781 166.625 283.996094 166.355469 283.671875 166.144531 C 283.554688 165.175781 283.523438 164.101562 283.660156 163.089844 Z M 283.441406 176.898438 C 282.683594 175.757812 281.941406 174.550781 281.527344 173.066406 C 281.140625 171.722656 280.933594 170.074219 281.3125 168.589844 C 281.460938 168.023438 281.691406 167.382812 282.132812 167.226562 C 282.390625 167.132812 282.660156 167.199219 282.914062 167.339844 C 282.960938 167.378906 283.007812 167.410156 283.0625 167.425781 C 283.253906 167.550781 283.4375 167.710938 283.597656 167.859375 C 284.53125 168.742188 285.199219 170.148438 285.421875 171.777344 C 285.429688 171.847656 285.449219 171.910156 285.46875 171.972656 C 285.582031 173.148438 285.59375 174.34375 285.554688 175.542969 C 285.507812 176.742188 285.429688 177.945312 285.238281 179.144531 C 284.597656 178.472656 284 177.726562 283.441406 176.898438 Z M 106.953125 195.726562 L 101.824219 184.398438 L 106.953125 173.066406 Z M 280.574219 145.699219 C 280.984375 145.375 281.398438 145.066406 281.820312 144.78125 C 280.332031 148.507812 278.367188 151.980469 275.515625 153.738281 C 274.890625 154.125 274.230469 154.414062 273.558594 154.574219 C 275.425781 150.980469 277.820312 147.914062 280.574219 145.699219 Z M 276.300781 154.800781 L 276.300781 177.640625 C 275.925781 177.914062 275.550781 178.199219 275.183594 178.496094 C 274.371094 179.164062 273.582031 179.890625 272.824219 180.667969 C 272.242188 181.265625 271.667969 181.902344 271.113281 182.558594 L 271.113281 174.890625 C 271.566406 171.609375 271.953125 168.320312 272.273438 165.027344 C 272.414062 163.542969 272.5625 162.0625 272.671875 160.574219 C 272.785156 159.089844 272.914062 157.605469 272.996094 156.121094 C 274.167969 155.964844 275.269531 155.5 276.300781 154.800781 Z M 273.195312 152.855469 L 273.347656 149.714844 C 273.414062 148.488281 273.449219 147.257812 273.492188 146.03125 C 273.535156 144.800781 273.582031 143.574219 273.605469 142.347656 C 274.566406 141.746094 275.46875 140.945312 276.300781 140.039062 L 276.300781 148.242188 C 275.5 149.226562 274.742188 150.28125 274.039062 151.402344 C 273.746094 151.875 273.46875 152.363281 273.195312 152.855469 Z M 277.09375 128.164062 C 277.523438 128.417969 277.707031 129.28125 277.824219 129.839844 C 278.179688 131.5625 278.167969 133.40625 277.773438 135.117188 C 277.4375 136.546875 276.773438 137.601562 275.960938 138.566406 C 275.261719 139.394531 274.46875 140.128906 273.644531 140.71875 L 273.683594 138.707031 C 273.699219 137.0625 273.75 135.410156 273.738281 133.765625 L 273.769531 133.667969 C 274.257812 132.019531 274.96875 130.476562 275.824219 129.144531 C 276.101562 128.71875 276.605469 127.882812 277.09375 128.164062 Z M 271.527344 122.699219 C 272.652344 121.378906 274.113281 122.449219 274.8125 123.964844 C 275.28125 124.96875 275.515625 126.117188 275.738281 127.257812 C 275.664062 127.332031 275.59375 127.40625 275.523438 127.488281 C 274.910156 128.214844 274.410156 129.183594 273.964844 130.109375 C 273.71875 130.613281 273.496094 131.132812 273.292969 131.667969 C 272.882812 130.613281 272.308594 129.691406 271.59375 128.976562 C 271.328125 128.707031 271.023438 128.457031 270.703125 128.257812 C 270.375 126.367188 270.378906 124.050781 271.527344 122.699219 Z M 268.460938 130.613281 C 268.570312 130.042969 268.792969 129.359375 269.269531 129.257812 C 269.507812 129.203125 269.75 129.265625 269.984375 129.382812 C 270.023438 129.414062 270.066406 129.4375 270.113281 129.449219 C 270.335938 129.582031 270.554688 129.753906 270.742188 129.917969 C 271.636719 130.695312 272.304688 131.894531 272.65625 133.261719 L 272.65625 133.277344 C 272.660156 134.472656 272.636719 135.671875 272.625 136.867188 C 272.613281 138.0625 272.601562 139.261719 272.570312 140.457031 C 272.015625 139.878906 271.53125 139.214844 271.046875 138.488281 C 270.28125 137.328125 269.457031 136.234375 268.941406 134.832031 C 268.464844 133.5625 268.195312 132.023438 268.460938 130.613281 Z M 267.449219 130.195312 C 267.191406 131.457031 267.300781 132.910156 267.582031 134.089844 C 267.785156 134.964844 268.078125 135.800781 268.457031 136.558594 C 268.835938 137.332031 269.300781 137.992188 269.757812 138.683594 C 270.613281 139.992188 271.445312 141.25 272.53125 142.195312 C 272.503906 143.648438 272.445312 145.101562 272.394531 146.554688 C 272.214844 151.34375 271.96875 156.132812 271.558594 160.917969 C 271.464844 162.246094 271.324219 163.570312 271.203125 164.898438 L 271.113281 165.828125 L 271.113281 143.015625 L 268.132812 140.488281 C 267.957031 139.492188 267.667969 138.535156 267.261719 137.683594 C 266.886719 136.898438 266.363281 136.171875 265.640625 136.078125 C 265.417969 136.050781 265.207031 136.097656 265.011719 136.191406 C 264.175781 133.992188 263.019531 131.726562 261.023438 131.5 C 260.136719 131.402344 259.390625 131.855469 258.832031 132.597656 L 235.371094 112.703125 Z M 258.960938 140.707031 C 259.175781 140.765625 259.378906 140.851562 259.5625 140.9375 C 260.675781 141.464844 261.609375 142.585938 262.136719 143.992188 C 262.167969 144.074219 262.214844 144.140625 262.265625 144.195312 C 262.75 146.238281 263.132812 148.351562 263.46875 150.46875 C 262.617188 150.035156 261.808594 149.488281 261.035156 148.84375 C 260.082031 148.046875 259.15625 147.195312 258.457031 145.992188 C 257.828125 144.910156 257.421875 143.519531 257.492188 142.128906 C 257.519531 141.59375 257.664062 140.96875 258.078125 140.75 C 258.289062 140.632812 258.527344 140.621094 258.761719 140.660156 C 258.824219 140.699219 258.894531 140.710938 258.960938 140.707031 Z M 259.261719 134.0625 C 259.609375 133.347656 260.171875 132.890625 260.816406 132.902344 C 261.550781 132.910156 262.234375 133.433594 262.742188 134.117188 C 263.351562 134.945312 263.753906 135.988281 264.140625 137.023438 C 264.085938 137.109375 264.03125 137.195312 263.980469 137.285156 C 263.484375 138.148438 263.136719 139.207031 262.824219 140.203125 C 262.648438 140.765625 262.5 141.339844 262.375 141.921875 C 261.800781 141 261.070312 140.265625 260.238281 139.785156 C 259.96875 139.628906 259.664062 139.496094 259.355469 139.402344 C 258.777344 137.757812 258.457031 135.683594 259.261719 134.0625 Z M 263.183594 143.386719 C 263.433594 141.839844 263.847656 140.34375 264.4375 138.957031 C 264.644531 138.453125 264.929688 137.65625 265.394531 137.511719 C 265.832031 137.375 266.183594 138.050781 266.382812 138.480469 C 267 139.839844 267.304688 141.4375 267.304688 143.039062 C 267.292969 144.574219 266.953125 145.949219 266.355469 147.253906 C 265.871094 148.335938 265.226562 149.378906 264.507812 150.230469 L 264.464844 149.964844 C 264.125 147.75 263.703125 145.535156 263.183594 143.386719 Z M 267.105469 148.296875 C 267.84375 146.777344 268.296875 145.128906 268.355469 143.308594 C 268.359375 142.941406 268.351562 142.570312 268.328125 142.195312 L 269.9375 143.558594 L 269.9375 167.910156 C 268.457031 166.058594 267.429688 163.734375 266.6875 161.195312 C 266.226562 159.691406 265.886719 158.121094 265.574219 156.527344 C 265.25 154.929688 265.007812 153.320312 264.753906 151.746094 C 265.667969 150.792969 266.457031 149.601562 267.105469 148.296875 Z M 209.933594 92.664062 L 225.851562 106.167969 L 203.820312 94.148438 Z M 192.214844 89.160156 L 200.585938 93.726562 L 170.421875 101.046875 Z M 135.136719 110.824219 L 161.996094 104.304688 L 130.246094 121.621094 Z M 108.128906 135.023438 L 127.726562 124.335938 L 108.128906 167.617188 Z M 108.128906 226.699219 L 108.128906 201.175781 L 123.476562 235.074219 Z M 135.136719 257.96875 L 125.996094 237.789062 L 185.347656 270.160156 Z M 193.152344 272.054688 L 189.769531 271.234375 L 125.191406 236.007812 L 108.128906 198.324219 L 108.128906 170.46875 L 129.441406 123.402344 L 166.421875 103.230469 L 202.121094 94.5625 L 230.277344 109.921875 L 258.246094 133.644531 C 257.945312 134.367188 257.765625 135.195312 257.738281 136.019531 C 257.699219 137.167969 257.882812 138.269531 258.179688 139.316406 C 257.574219 139.429688 257.027344 139.824219 256.710938 140.6875 C 256.425781 141.472656 256.371094 142.347656 256.460938 143.214844 C 256.539062 144.078125 256.761719 144.925781 257.042969 145.652344 C 257.679688 147.257812 258.675781 148.449219 259.78125 149.453125 C 261.007812 150.558594 262.320312 151.480469 263.738281 152.109375 C 263.988281 153.699219 264.234375 155.285156 264.542969 156.847656 C 264.832031 158.410156 265.171875 159.941406 265.613281 161.433594 C 263.511719 159.339844 260.746094 158.515625 258.097656 158.421875 C 256.929688 158.382812 255.757812 158.464844 254.589844 158.589844 C 254.09375 158.640625 254.054688 159.507812 254.367188 159.824219 C 257.113281 162.640625 260.410156 164.550781 263.929688 165.300781 C 264.921875 165.507812 265.929688 165.617188 266.941406 165.625 C 267.007812 165.625 267.070312 165.609375 267.132812 165.585938 C 267.21875 165.761719 267.304688 165.941406 267.394531 166.125 C 268.089844 167.542969 268.9375 168.832031 269.9375 169.878906 L 269.9375 175.574219 C 269.804688 176.507812 269.667969 177.441406 269.519531 178.375 C 268.539062 184.699219 267.277344 190.992188 265.660156 197.203125 C 264.011719 203.511719 262.019531 209.742188 259.558594 215.800781 C 257.292969 221.410156 254.652344 226.882812 251.617188 232.132812 C 249.148438 236.390625 246.402344 240.492188 243.445312 244.429688 C 243.511719 243.949219 243.578125 243.472656 243.644531 243 C 243.703125 242.515625 243.765625 242.03125 243.828125 241.554688 C 243.957031 240.589844 244.105469 239.632812 244.265625 238.675781 C 244.441406 237.730469 244.5625 236.746094 244.738281 235.789062 C 244.898438 234.824219 245.09375 233.875 245.273438 232.914062 L 245.300781 232.773438 C 245.320312 232.71875 245.335938 232.660156 245.347656 232.597656 L 245.375 232.382812 C 245.695312 230.554688 246.132812 228.789062 246.5 226.972656 C 246.695312 226.070312 246.902344 225.175781 247.121094 224.289062 C 247.3125 223.382812 247.511719 222.480469 247.722656 221.585938 C 251.632812 220.914062 255.101562 217.183594 257.347656 212.992188 C 258.070312 211.617188 258.746094 210.199219 259.300781 208.734375 C 259.535156 208.144531 259.046875 207.667969 258.617188 207.960938 C 255.105469 210.375 251.820312 213.59375 249.09375 217.269531 C 248.890625 217.535156 248.695312 217.804688 248.503906 218.078125 C 249.007812 215.886719 249.386719 213.648438 249.738281 211.457031 C 253.394531 208.625 256.457031 204.316406 258.125 199.402344 C 259.386719 198.914062 260.652344 198.042969 261.746094 196.976562 C 262.90625 195.8125 263.867188 194.4375 264.46875 192.683594 C 265.101562 190.789062 265.382812 188.695312 265.078125 186.792969 C 264.957031 185.976562 264.652344 185.140625 264.050781 184.835938 C 263.851562 184.734375 263.644531 184.703125 263.441406 184.71875 C 263.269531 182.375 262.84375 179.855469 261.117188 178.882812 C 259.410156 177.929688 257.46875 179.519531 256.722656 181.703125 C 256.359375 182.832031 256.15625 183.96875 256.148438 185.128906 C 255.550781 185.015625 254.933594 185.191406 254.386719 185.867188 C 253.414062 187.066406 253.128906 189.046875 253.257812 190.570312 C 253.363281 192.292969 253.898438 193.761719 254.640625 195.152344 C 255.363281 196.542969 256.171875 197.824219 257.164062 198.929688 C 256.132812 202.058594 254.484375 204.949219 252.472656 207.320312 C 251.699219 208.25 250.8125 209.085938 249.929688 209.847656 C 250.019531 209.0625 250.101562 208.28125 250.167969 207.503906 C 250.230469 206.722656 250.246094 205.933594 250.265625 205.15625 C 250.371094 201.257812 249.816406 197.421875 248.5625 194.046875 C 248.007812 192.585938 247.296875 191.210938 246.46875 189.992188 C 247.058594 188.492188 247.25 186.839844 247.152344 185.292969 C 247.015625 183.730469 246.53125 182.25 245.71875 181.046875 C 244.949219 179.917969 243.882812 178.921875 242.683594 178.515625 C 242.070312 178.304688 241.363281 178.332031 240.835938 178.871094 C 240.75 178.957031 240.675781 179.054688 240.609375 179.15625 C 238.988281 178.121094 237.070312 177.269531 235.257812 178.484375 C 234.449219 179.019531 233.894531 179.964844 233.777344 180.984375 C 233.660156 182.070312 233.890625 183.078125 234.378906 183.96875 C 234.757812 184.660156 235.257812 185.234375 235.828125 185.722656 L 235.78125 185.765625 C 235.21875 186.320312 234.96875 187.085938 235.074219 187.875 C 235.253906 189.285156 236.347656 190.460938 237.394531 191.117188 C 238.492188 191.808594 239.78125 192.101562 241.082031 192.085938 C 242.664062 192.070312 244.210938 191.589844 245.757812 191.066406 C 246.304688 191.90625 246.8125 192.824219 247.21875 193.785156 C 247.769531 195.09375 248.207031 196.492188 248.542969 197.953125 C 248.839844 199.402344 249.035156 200.910156 249.148438 202.453125 C 247.839844 199.605469 245.433594 197.792969 242.863281 196.714844 C 241.796875 196.265625 240.691406 195.925781 239.578125 195.625 C 239.167969 195.515625 238.667969 196.058594 238.90625 196.507812 C 240.746094 199.90625 243.214844 202.8125 246.277344 204.816406 C 247.148438 205.386719 248.066406 205.882812 249.015625 206.289062 C 249.066406 206.308594 249.113281 206.316406 249.160156 206.320312 C 249.089844 207.90625 248.902344 209.492188 248.710938 211.101562 C 248.707031 211.132812 248.699219 211.164062 248.699219 211.195312 C 248.519531 212.339844 248.320312 213.492188 248.117188 214.652344 C 247.917969 215.8125 247.640625 216.941406 247.40625 218.097656 C 247.234375 218.929688 247.0625 219.757812 246.859375 220.574219 C 246.792969 220.683594 246.769531 220.804688 246.773438 220.925781 C 246.640625 221.515625 246.503906 222.109375 246.371094 222.707031 C 246.238281 223.304688 246.113281 223.902344 245.960938 224.488281 C 245.675781 225.664062 245.40625 226.855469 245.164062 228.054688 C 244.460938 225.5 242.917969 223.476562 241.117188 221.984375 C 240.226562 221.242188 239.273438 220.59375 238.296875 219.984375 C 237.898438 219.738281 237.355469 220.277344 237.449219 220.746094 C 237.640625 221.714844 237.882812 222.671875 238.179688 223.605469 C 238.484375 224.546875 238.789062 225.4375 239.171875 226.320312 C 239.925781 228.070312 240.882812 229.71875 242.027344 231.179688 C 242.644531 231.976562 243.324219 232.703125 244.054688 233.375 C 243.660156 235.277344 243.378906 237.238281 243.039062 239.136719 C 242.882812 240.097656 242.738281 241.0625 242.613281 242.03125 C 242.472656 242.992188 242.324219 243.941406 242.203125 244.902344 C 242.1875 245.042969 242.171875 245.183594 242.152344 245.324219 Z M 266.167969 164.167969 C 263.054688 163.96875 260.023438 162.789062 257.378906 160.792969 C 256.972656 160.488281 256.570312 160.160156 256.179688 159.816406 C 259.238281 159.667969 262.417969 160.085938 264.871094 162.511719 C 265.355469 162.992188 265.789062 163.546875 266.167969 164.167969 Z M 265.082031 227.984375 C 263.125 228.269531 261.113281 228.84375 259.152344 229.667969 C 258.179688 230.082031 257.164062 230.535156 256.179688 231.054688 C 255.191406 231.570312 254.21875 232.140625 253.269531 232.765625 C 252.839844 233.03125 252.417969 233.308594 251.996094 233.59375 C 254.5 229.324219 256.777344 224.925781 258.78125 220.410156 C 260.585938 216.265625 262.234375 212.054688 263.660156 207.773438 C 264.308594 206.476562 265.140625 205.492188 266.109375 204.714844 C 266.589844 204.328125 267.097656 203.988281 267.617188 203.6875 C 268.128906 203.382812 268.648438 203.117188 269.164062 202.875 C 269.3125 204 269.578125 205.03125 269.9375 205.980469 L 269.9375 225.234375 L 265.382812 229.097656 C 265.753906 228.554688 265.621094 227.902344 265.082031 227.984375 Z M 267.507812 202.269531 C 267.023438 202.554688 266.550781 202.863281 266.09375 203.207031 C 265.625 203.550781 265.171875 203.929688 264.75 204.351562 C 264.976562 203.625 265.210938 202.898438 265.410156 202.164062 C 266.824219 197.40625 267.957031 192.578125 268.949219 187.730469 C 269.28125 187.730469 269.609375 187.699219 269.9375 187.652344 L 269.9375 201.0625 C 269.136719 201.414062 268.3125 201.804688 267.507812 202.269531 Z M 269.9375 182.449219 L 269.9375 184.035156 C 269.820312 184.191406 269.695312 184.34375 269.578125 184.503906 L 269.84375 183.011719 C 269.875 182.824219 269.902344 182.636719 269.9375 182.449219 Z M 241.371094 227.917969 C 240.542969 226.503906 239.886719 224.984375 239.328125 223.359375 C 239.164062 222.878906 239.019531 222.390625 238.894531 221.894531 C 240.136719 222.777344 241.324219 223.792969 242.28125 225.03125 C 242.757812 225.648438 243.179688 226.324219 243.519531 227.070312 C 243.847656 227.808594 244.085938 228.609375 244.226562 229.488281 C 244.335938 230.210938 244.367188 230.964844 244.316406 231.742188 C 243.183594 230.628906 242.199219 229.332031 241.371094 227.917969 Z M 248.382812 220.160156 C 248.921875 219.308594 249.5 218.480469 250.117188 217.6875 C 250.421875 217.289062 250.746094 216.902344 251.0625 216.515625 C 251.375 216.125 251.691406 215.742188 252.019531 215.367188 C 252.671875 214.617188 253.359375 213.902344 254.070312 213.21875 C 254.757812 212.523438 255.472656 211.867188 256.210938 211.246094 C 256.648438 210.878906 257.097656 210.527344 257.554688 210.191406 C 256.679688 212.046875 255.738281 213.894531 254.515625 215.464844 C 253.917969 216.253906 253.292969 216.996094 252.597656 217.644531 C 251.894531 218.289062 251.148438 218.851562 250.355469 219.308594 C 249.703125 219.683594 249.046875 219.96875 248.382812 220.160156 Z M 262.011719 185.5 C 260.984375 186.503906 260.109375 187.789062 259.308594 189.132812 C 259.070312 188.105469 258.648438 187.183594 258.042969 186.4375 C 257.804688 186.144531 257.527344 185.863281 257.222656 185.636719 C 257.1875 184.75 257.246094 183.785156 257.46875 182.890625 C 257.671875 181.988281 258.042969 181.15625 258.667969 180.558594 C 259.207031 180.039062 259.863281 179.8125 260.460938 180.089844 C 261.109375 180.386719 261.597656 181.082031 261.878906 181.890625 C 262.226562 182.90625 262.332031 184.050781 262.382812 185.175781 C 262.253906 185.273438 262.128906 185.382812 262.011719 185.5 Z M 263.414062 186.113281 C 263.839844 186.148438 263.976562 186.859375 264.042969 187.320312 C 264.296875 188.878906 264.023438 190.648438 263.523438 192.199219 C 263.0625 193.621094 262.273438 194.773438 261.339844 195.738281 C 260.929688 196.160156 260.496094 196.550781 260.042969 196.898438 C 259.578125 197.242188 259.101562 197.542969 258.617188 197.789062 C 258.765625 197.234375 258.929688 196.683594 259.03125 196.113281 C 259.199219 195.25 259.332031 194.382812 259.429688 193.515625 C 259.476562 193.082031 259.515625 192.648438 259.542969 192.214844 C 259.5625 191.78125 259.570312 191.347656 259.570312 190.914062 C 260.265625 189.523438 261.15625 188.257812 262.09375 187.125 C 262.429688 186.726562 262.941406 186.070312 263.414062 186.113281 Z M 258.46875 190.902344 C 258.472656 190.96875 258.484375 191.027344 258.496094 191.082031 C 258.511719 192.15625 258.398438 193.21875 258.261719 194.289062 C 258.113281 195.359375 257.914062 196.429688 257.613281 197.46875 C 257.035156 196.78125 256.53125 196.039062 256.046875 195.222656 C 255.398438 194.105469 254.769531 192.933594 254.492188 191.566406 C 254.242188 190.328125 254.164062 188.832031 254.671875 187.554688 C 254.863281 187.070312 255.15625 186.523438 255.605469 186.433594 C 255.871094 186.382812 256.132812 186.472656 256.371094 186.625 C 256.414062 186.664062 256.457031 186.699219 256.511719 186.722656 C 256.691406 186.855469 256.859375 187.019531 257.003906 187.171875 C 257.847656 188.070312 258.390625 189.414062 258.46875 190.902344 Z M 240.503906 184.988281 C 239.601562 184.679688 238.625 184.621094 237.671875 184.839844 C 237.410156 184.898438 237.148438 184.976562 236.890625 185.074219 C 236.339844 184.671875 235.808594 184.15625 235.425781 183.550781 C 235.042969 182.945312 234.796875 182.242188 234.796875 181.4375 C 234.804688 180.699219 235.101562 179.996094 235.667969 179.574219 C 236.222656 179.15625 236.941406 179.035156 237.574219 179.125 C 238.527344 179.265625 239.371094 179.792969 240.179688 180.328125 C 240.148438 180.523438 240.125 180.726562 240.113281 180.925781 C 240.035156 182.277344 240.226562 183.6875 240.503906 184.988281 Z M 236.246094 186.898438 C 236.414062 186.628906 236.664062 186.445312 236.941406 186.3125 L 236.980469 186.292969 C 237.148438 186.21875 237.320312 186.160156 237.480469 186.109375 C 238.699219 185.730469 239.992188 185.933594 241.042969 186.621094 C 241.085938 186.695312 241.148438 186.761719 241.238281 186.8125 C 241.964844 187.199219 242.648438 187.671875 243.28125 188.214844 C 243.910156 188.757812 244.484375 189.367188 245.011719 190.035156 C 242.902344 190.738281 240.71875 191.246094 238.699219 190.441406 C 237.769531 190.070312 236.902344 189.386719 236.402344 188.4375 C 236.175781 188.011719 235.949219 187.386719 236.246094 186.898438 Z M 242.765625 186.28125 C 242.460938 186.082031 242.148438 185.898438 241.828125 185.726562 C 241.644531 185.101562 241.5 184.464844 241.398438 183.816406 C 241.28125 183.160156 241.207031 182.492188 241.179688 181.816406 C 241.15625 181.261719 241.097656 180.589844 241.332031 180.0625 C 241.539062 179.574219 241.976562 179.597656 242.351562 179.726562 C 243.289062 180.046875 244.140625 180.851562 244.746094 181.707031 C 245.421875 182.65625 245.890625 183.84375 246.0625 185.117188 C 246.214844 186.375 246.097656 187.734375 245.71875 188.988281 C 244.851562 187.925781 243.863281 187.007812 242.765625 186.28125 Z M 248.6875 204.683594 C 247.273438 204.003906 245.957031 203.117188 244.753906 202.070312 C 244.152344 201.546875 243.585938 200.984375 243.042969 200.386719 C 242.492188 199.785156 241.972656 199.144531 241.484375 198.476562 C 241.191406 198.066406 240.910156 197.652344 240.640625 197.222656 C 243.523438 198.175781 246.375 199.644531 247.949219 202.683594 C 248.265625 203.296875 248.515625 203.96875 248.6875 204.683594 Z M 235.003906 254.390625 L 234.078125 255.320312 C 233.460938 255.941406 232.847656 256.5625 232.242188 257.191406 L 232.148438 257.285156 L 209.933594 276.128906 L 194.851562 272.46875 L 241.347656 247.105469 C 239.601562 249.277344 237.785156 251.386719 235.890625 253.425781 Z M 239.378906 251.152344 C 240.242188 250.144531 241.089844 249.121094 241.949219 248.105469 C 242.558594 247.34375 243.15625 246.570312 243.746094 245.796875 L 249.203125 242.820312 Z M 253.628906 239.066406 L 245.433594 243.539062 C 247.089844 241.277344 248.683594 238.96875 250.183594 236.597656 C 251.945312 237.234375 253.925781 237.027344 255.980469 236.261719 C 256.695312 236.007812 257.398438 235.671875 258.089844 235.28125 Z M 253.429688 235.539062 C 252.710938 235.609375 252.023438 235.566406 251.371094 235.425781 C 252.199219 234.820312 253.046875 234.253906 253.910156 233.730469 C 254.78125 233.210938 255.609375 232.703125 256.480469 232.257812 C 257.34375 231.8125 258.222656 231.410156 259.101562 231.058594 C 259.988281 230.710938 260.835938 230.390625 261.710938 230.136719 C 262.230469 229.984375 262.75 229.851562 263.265625 229.738281 C 262.507812 230.492188 261.753906 231.222656 260.957031 231.882812 C 260.148438 232.539062 259.328125 233.136719 258.5 233.65625 C 256.867188 234.699219 255.128906 235.375 253.429688 235.539062 Z M 276.300781 226.699219 L 258.722656 236.289062 L 270.90625 225.957031 L 271.113281 225.78125 L 271.113281 208.332031 C 272.304688 210.195312 273.902344 211.597656 275.605469 212.582031 C 275.835938 212.710938 276.066406 212.835938 276.300781 212.953125 Z M 277.921875 211.933594 C 275.109375 210.742188 272.421875 208.867188 271.039062 205.375 C 270.769531 204.667969 270.53125 203.914062 270.371094 203.117188 C 271.777344 203.828125 273.097656 204.804688 274.25 206.019531 C 275.398438 207.230469 276.402344 208.6875 277.230469 210.363281 C 277.480469 210.867188 277.710938 211.390625 277.921875 211.933594 Z M 276.078125 199.035156 C 276.152344 198.972656 276.226562 198.910156 276.300781 198.847656 L 276.300781 198.984375 C 276.226562 199 276.152344 199.019531 276.078125 199.035156 Z M 276.300781 200.480469 L 276.300781 206.214844 C 275.265625 204.863281 274.074219 203.722656 272.785156 202.820312 C 272.308594 202.488281 271.820312 202.195312 271.316406 201.925781 C 272.070312 201.59375 272.820312 201.242188 273.566406 200.816406 C 274.476562 200.800781 275.390625 200.679688 276.300781 200.480469 Z M 274.144531 198.921875 C 273.921875 199.074219 273.695312 199.214844 273.464844 199.351562 C 273.433594 199.367188 273.398438 199.386719 273.367188 199.410156 C 272.632812 199.847656 271.875 200.207031 271.113281 200.546875 L 271.113281 187.382812 C 272.226562 187.027344 273.304688 186.414062 274.324219 185.601562 C 275.007812 185.046875 275.667969 184.402344 276.300781 183.691406 L 276.300781 197.214844 C 275.597656 197.847656 274.878906 198.421875 274.144531 198.921875 Z M 275.882812 182.378906 C 274.648438 183.820312 273.296875 184.980469 271.773438 185.683594 C 271.101562 185.988281 270.40625 186.191406 269.71875 186.261719 C 270.898438 184.59375 272.125 183.058594 273.503906 181.703125 C 274.859375 180.347656 276.273438 179.164062 277.785156 178.203125 C 278.230469 177.921875 278.679688 177.65625 279.132812 177.410156 C 278.152344 179.214844 277.113281 180.9375 275.882812 182.378906 Z M 285.167969 192.433594 C 285.71875 190.921875 286.402344 189.542969 287.359375 188.460938 C 288.351562 187.3125 289.511719 186.492188 290.703125 186.144531 C 291.195312 186 291.832031 185.804688 292.261719 186.136719 C 292.667969 186.449219 292.492188 187.261719 292.308594 187.835938 C 292.152344 188.332031 291.972656 188.816406 291.773438 189.289062 C 291.566406 189.765625 291.339844 190.226562 291.101562 190.675781 C 290.621094 191.574219 290.089844 192.414062 289.539062 193.179688 C 287.757812 193.976562 285.9375 194.882812 284.15625 195.796875 C 284.402344 194.644531 284.777344 193.511719 285.167969 192.433594 Z M 292.941406 199.421875 C 292.035156 200.460938 290.84375 200.847656 289.84375 200.808594 C 288.695312 200.761719 287.722656 200.160156 286.777344 199.46875 C 285.929688 198.847656 285.140625 198.109375 284.414062 197.234375 L 286.324219 196.261719 C 287.34375 195.75 288.367188 195.28125 289.398438 194.828125 C 289.457031 194.859375 289.523438 194.871094 289.589844 194.855469 C 290.734375 194.625 291.847656 194.964844 292.683594 195.875 C 292.886719 196.097656 293.101562 196.359375 293.273438 196.675781 C 293.296875 196.75 293.332031 196.816406 293.371094 196.867188 C 293.46875 197.078125 293.542969 197.304688 293.582031 197.550781 C 293.691406 198.273438 293.363281 198.9375 292.941406 199.421875 Z M 297.867188 191.410156 C 297.550781 192.519531 296.953125 193.375 296.289062 194.011719 C 295.578125 194.695312 294.824219 195.070312 294.046875 195.285156 C 293.996094 195.203125 293.945312 195.121094 293.890625 195.042969 C 293.105469 193.949219 292.058594 193.324219 290.929688 193.195312 C 291.792969 191.832031 292.597656 190.292969 293.15625 188.671875 C 293.265625 188.363281 293.359375 188.039062 293.433594 187.714844 C 294.910156 187.316406 296.726562 186.855469 297.6875 188.605469 C 298.089844 189.351562 298.171875 190.378906 297.867188 191.410156 Z M 297.867188 191.410156 " clip-rule="nonzero"/></clipPath><linearGradient x1="0.00000103522" gradientTransform="matrix(0.397182, 0, 0, 0.397254, 100.531939, 87.820098)" y1="238.629" x2="500.355962" gradientUnits="userSpaceOnUse" y2="238.629" id="bcb0a879d0"><stop stop-opacity="1" stop-color="rgb(76.899719%, 63.09967%, 94.099426%)" offset="0"/><stop stop-opacity="1" stop-color="rgb(76.913452%, 63.276672%, 94.05365%)" offset="0.03125"/><stop stop-opacity="1" stop-color="rgb(76.94397%, 63.630676%, 93.962097%)" offset="0.0625"/><stop stop-opacity="1" stop-color="rgb(76.974487%, 63.986206%, 93.87207%)" offset="0.09375"/><stop stop-opacity="1" stop-color="rgb(77.005005%, 64.341736%, 93.782043%)" offset="0.125"/><stop stop-opacity="1" stop-color="rgb(77.035522%, 64.69574%, 93.690491%)" offset="0.15625"/><stop stop-opacity="1" stop-color="rgb(77.064514%, 65.05127%, 93.600464%)" offset="0.1875"/><stop stop-opacity="1" stop-color="rgb(77.095032%, 65.406799%, 93.508911%)" offset="0.21875"/><stop stop-opacity="1" stop-color="rgb(77.125549%, 65.760803%, 93.418884%)" offset="0.25"/><stop stop-opacity="1" stop-color="rgb(77.156067%, 66.116333%, 93.328857%)" offset="0.28125"/><stop stop-opacity="1" stop-color="rgb(77.186584%, 66.471863%, 93.237305%)" offset="0.3125"/><stop stop-opacity="1" stop-color="rgb(77.217102%, 66.825867%, 93.147278%)" offset="0.34375"/><stop stop-opacity="1" stop-color="rgb(77.246094%, 67.181396%, 93.055725%)" offset="0.375"/><stop stop-opacity="1" stop-color="rgb(77.276611%, 67.536926%, 92.965698%)" offset="0.40625"/><stop stop-opacity="1" stop-color="rgb(77.282715%, 67.713928%, 92.907715%)" offset="0.414062"/><stop stop-opacity="1" stop-color="rgb(77.006531%, 66.781616%, 92.83905%)" offset="0.417969"/><stop stop-opacity="1" stop-color="rgb(76.739502%, 65.85083%, 92.784119%)" offset="0.421875"/><stop stop-opacity="1" stop-color="rgb(76.470947%, 64.918518%, 92.727661%)" offset="0.425781"/><stop stop-opacity="1" stop-color="rgb(76.203918%, 63.986206%, 92.672729%)" offset="0.429688"/><stop stop-opacity="1" stop-color="rgb(75.935364%, 63.053894%, 92.617798%)" offset="0.433594"/><stop stop-opacity="1" stop-color="rgb(75.668335%, 62.123108%, 92.562866%)" offset="0.4375"/><stop stop-opacity="1" stop-color="rgb(75.39978%, 61.190796%, 92.507935%)" offset="0.441406"/><stop stop-opacity="1" stop-color="rgb(75.132751%, 60.258484%, 92.453003%)" offset="0.445313"/><stop stop-opacity="1" stop-color="rgb(74.865723%, 59.326172%, 92.396545%)" offset="0.449219"/><stop stop-opacity="1" stop-color="rgb(74.598694%, 58.395386%, 92.341614%)" offset="0.453125"/><stop stop-opacity="1" stop-color="rgb(74.330139%, 57.463074%, 92.286682%)" offset="0.457031"/><stop stop-opacity="1" stop-color="rgb(74.06311%, 56.530762%, 92.23175%)" offset="0.460938"/><stop stop-opacity="1" stop-color="rgb(73.794556%, 55.59845%, 92.175293%)" offset="0.464844"/><stop stop-opacity="1" stop-color="rgb(73.527527%, 54.667664%, 92.120361%)" offset="0.46875"/><stop stop-opacity="1" stop-color="rgb(73.258972%, 53.735352%, 92.06543%)" offset="0.472656"/><stop stop-opacity="1" stop-color="rgb(72.991943%, 52.80304%, 92.010498%)" offset="0.476563"/><stop stop-opacity="1" stop-color="rgb(72.723389%, 51.870728%, 91.955566%)" offset="0.480469"/><stop stop-opacity="1" stop-color="rgb(72.45636%, 50.939941%, 91.900635%)" offset="0.484375"/><stop stop-opacity="1" stop-color="rgb(72.187805%, 50.007629%, 91.844177%)" offset="0.488281"/><stop stop-opacity="1" stop-color="rgb(71.920776%, 49.075317%, 91.789246%)" offset="0.492188"/><stop stop-opacity="1" stop-color="rgb(71.652222%, 48.143005%, 91.734314%)" offset="0.496094"/><stop stop-opacity="1" stop-color="rgb(71.385193%, 47.212219%, 91.679382%)" offset="0.5"/><stop stop-opacity="1" stop-color="rgb(71.116638%, 46.279907%, 91.622925%)" offset="0.503906"/><stop stop-opacity="1" stop-color="rgb(70.849609%, 45.347595%, 91.567993%)" offset="0.507812"/><stop stop-opacity="1" stop-color="rgb(70.582581%, 44.415283%, 91.513062%)" offset="0.511719"/><stop stop-opacity="1" stop-color="rgb(70.315552%, 43.484497%, 91.45813%)" offset="0.515625"/><stop stop-opacity="1" stop-color="rgb(70.046997%, 42.552185%, 91.403198%)" offset="0.519531"/><stop stop-opacity="1" stop-color="rgb(69.779968%, 41.619873%, 91.348267%)" offset="0.523438"/><stop stop-opacity="1" stop-color="rgb(69.511414%, 40.687561%, 91.291809%)" offset="0.527344"/><stop stop-opacity="1" stop-color="rgb(69.244385%, 39.755249%, 91.236877%)" offset="0.53125"/><stop stop-opacity="1" stop-color="rgb(68.97583%, 38.822937%, 91.181946%)" offset="0.535156"/><stop stop-opacity="1" stop-color="rgb(68.708801%, 37.892151%, 91.127014%)" offset="0.539062"/><stop stop-opacity="1" stop-color="rgb(68.440247%, 36.959839%, 91.070557%)" offset="0.542969"/><stop stop-opacity="1" stop-color="rgb(68.173218%, 36.027527%, 91.015625%)" offset="0.546875"/><stop stop-opacity="1" stop-color="rgb(67.904663%, 35.095215%, 90.960693%)" offset="0.550781"/><stop stop-opacity="1" stop-color="rgb(67.637634%, 34.164429%, 90.905762%)" offset="0.554688"/><stop stop-opacity="1" stop-color="rgb(67.36908%, 33.232117%, 90.85083%)" offset="0.558594"/><stop stop-opacity="1" stop-color="rgb(67.102051%, 32.299805%, 90.795898%)" offset="0.5625"/><stop stop-opacity="1" stop-color="rgb(66.835022%, 31.367493%, 90.739441%)" offset="0.566406"/><stop stop-opacity="1" stop-color="rgb(66.567993%, 30.436707%, 90.684509%)" offset="0.570312"/><stop stop-opacity="1" stop-color="rgb(66.299438%, 29.504395%, 90.629578%)" offset="0.574219"/><stop stop-opacity="1" stop-color="rgb(66.03241%, 28.572083%, 90.574646%)" offset="0.578125"/><stop stop-opacity="1" stop-color="rgb(65.763855%, 27.639771%, 90.518188%)" offset="0.582031"/><stop stop-opacity="1" stop-color="rgb(65.496826%, 26.708984%, 90.463257%)" offset="0.585937"/><stop stop-opacity="1" stop-color="rgb(65.228271%, 25.776672%, 90.408325%)" offset="0.589844"/><stop stop-opacity="1" stop-color="rgb(64.961243%, 24.84436%, 90.353394%)" offset="0.59375"/><stop stop-opacity="1" stop-color="rgb(64.692688%, 23.912048%, 90.298462%)" offset="0.597656"/><stop stop-opacity="1" stop-color="rgb(64.425659%, 22.981262%, 90.24353%)" offset="0.601562"/><stop stop-opacity="1" stop-color="rgb(64.157104%, 22.04895%, 90.187073%)" offset="0.605469"/><stop stop-opacity="1" stop-color="rgb(63.890076%, 21.116638%, 90.132141%)" offset="0.609375"/><stop stop-opacity="1" stop-color="rgb(63.621521%, 20.184326%, 90.077209%)" offset="0.613281"/><stop stop-opacity="1" stop-color="rgb(63.354492%, 19.25354%, 90.022278%)" offset="0.617187"/><stop stop-opacity="1" stop-color="rgb(63.087463%, 18.321228%, 89.96582%)" offset="0.621094"/><stop stop-opacity="1" stop-color="rgb(62.820435%, 17.388916%, 89.910889%)" offset="0.625"/><stop stop-opacity="1" stop-color="rgb(62.55188%, 16.456604%, 89.855957%)" offset="0.628906"/><stop stop-opacity="1" stop-color="rgb(62.284851%, 15.525818%, 89.801025%)" offset="0.632813"/><stop stop-opacity="1" stop-color="rgb(62.016296%, 14.593506%, 89.746094%)" offset="0.636719"/><stop stop-opacity="1" stop-color="rgb(61.749268%, 13.661194%, 89.691162%)" offset="0.640625"/><stop stop-opacity="1" stop-color="rgb(61.480713%, 12.728882%, 89.634705%)" offset="0.644531"/><stop stop-opacity="1" stop-color="rgb(61.213684%, 11.798096%, 89.579773%)" offset="0.648438"/><stop stop-opacity="1" stop-color="rgb(60.945129%, 10.865784%, 89.524841%)" offset="0.652344"/><stop stop-opacity="1" stop-color="rgb(60.678101%, 9.933472%, 89.46991%)" offset="0.65625"/><stop stop-opacity="1" stop-color="rgb(60.409546%, 9.00116%, 89.413452%)" offset="0.660156"/><stop stop-opacity="1" stop-color="rgb(60.142517%, 8.070374%, 89.358521%)" offset="0.664063"/><stop stop-opacity="1" stop-color="rgb(59.873962%, 7.138062%, 89.303589%)" offset="0.667969"/><stop stop-opacity="1" stop-color="rgb(59.606934%, 6.20575%, 89.248657%)" offset="0.671875"/><stop stop-opacity="1" stop-color="rgb(59.339905%, 5.273438%, 89.193726%)" offset="0.675781"/><stop stop-opacity="1" stop-color="rgb(59.072876%, 4.342651%, 89.138794%)" offset="0.679688"/><stop stop-opacity="1" stop-color="rgb(58.804321%, 3.410339%, 89.082336%)" offset="0.683594"/><stop stop-opacity="1" stop-color="rgb(58.537292%, 2.478027%, 89.027405%)" offset="0.6875"/><stop stop-opacity="1" stop-color="rgb(58.824158%, 3.126526%, 88.371277%)" offset="0.691406"/><stop stop-opacity="1" stop-color="rgb(59.112549%, 3.775024%, 87.715149%)" offset="0.695312"/><stop stop-opacity="1" stop-color="rgb(59.593201%, 4.969788%, 86.849976%)" offset="0.699219"/><stop stop-opacity="1" stop-color="rgb(60.073853%, 6.164551%, 85.986328%)" offset="0.703125"/><stop stop-opacity="1" stop-color="rgb(60.554504%, 7.359314%, 85.121155%)" offset="0.707031"/><stop stop-opacity="1" stop-color="rgb(61.035156%, 8.555603%, 84.257507%)" offset="0.710938"/><stop stop-opacity="1" stop-color="rgb(61.515808%, 9.750366%, 83.392334%)" offset="0.714844"/><stop stop-opacity="1" stop-color="rgb(61.99646%, 10.945129%, 82.528687%)" offset="0.71875"/><stop stop-opacity="1" stop-color="rgb(62.475586%, 12.139893%, 81.663513%)" offset="0.722656"/><stop stop-opacity="1" stop-color="rgb(62.956238%, 13.336182%, 80.799866%)" offset="0.726562"/><stop stop-opacity="1" stop-color="rgb(63.43689%, 14.530945%, 79.934692%)" offset="0.730469"/><stop stop-opacity="1" stop-color="rgb(63.917542%, 15.725708%, 79.071045%)" offset="0.734375"/><stop stop-opacity="1" stop-color="rgb(64.398193%, 16.920471%, 78.205872%)" offset="0.738281"/><stop stop-opacity="1" stop-color="rgb(64.878845%, 18.115234%, 77.340698%)" offset="0.742188"/><stop stop-opacity="1" stop-color="rgb(65.357971%, 19.309998%, 76.475525%)" offset="0.746094"/><stop stop-opacity="1" stop-color="rgb(65.838623%, 20.506287%, 75.611877%)" offset="0.75"/><stop stop-opacity="1" stop-color="rgb(66.319275%, 21.70105%, 74.746704%)" offset="0.753906"/><stop stop-opacity="1" stop-color="rgb(66.799927%, 22.895813%, 73.883057%)" offset="0.757812"/><stop stop-opacity="1" stop-color="rgb(67.280579%, 24.090576%, 73.017883%)" offset="0.761719"/><stop stop-opacity="1" stop-color="rgb(67.76123%, 25.286865%, 72.154236%)" offset="0.765625"/><stop stop-opacity="1" stop-color="rgb(68.241882%, 26.481628%, 71.289062%)" offset="0.769531"/><stop stop-opacity="1" stop-color="rgb(68.722534%, 27.676392%, 70.425415%)" offset="0.773438"/><stop stop-opacity="1" stop-color="rgb(69.20166%, 28.871155%, 69.560242%)" offset="0.777344"/><stop stop-opacity="1" stop-color="rgb(69.682312%, 30.067444%, 68.696594%)" offset="0.78125"/><stop stop-opacity="1" stop-color="rgb(70.162964%, 31.262207%, 67.831421%)" offset="0.785156"/><stop stop-opacity="1" stop-color="rgb(70.643616%, 32.45697%, 66.967773%)" offset="0.789062"/><stop stop-opacity="1" stop-color="rgb(71.124268%, 33.651733%, 66.1026%)" offset="0.792969"/><stop stop-opacity="1" stop-color="rgb(71.604919%, 34.846497%, 65.238953%)" offset="0.796875"/><stop stop-opacity="1" stop-color="rgb(72.085571%, 36.04126%, 64.373779%)" offset="0.800781"/><stop stop-opacity="1" stop-color="rgb(72.566223%, 37.237549%, 63.510132%)" offset="0.804688"/><stop stop-opacity="1" stop-color="rgb(73.045349%, 38.432312%, 62.644958%)" offset="0.808594"/><stop stop-opacity="1" stop-color="rgb(73.526001%, 39.627075%, 61.781311%)" offset="0.8125"/><stop stop-opacity="1" stop-color="rgb(74.006653%, 40.821838%, 60.916138%)" offset="0.816406"/><stop stop-opacity="1" stop-color="rgb(74.487305%, 42.018127%, 60.05249%)" offset="0.820312"/><stop stop-opacity="1" stop-color="rgb(74.967957%, 43.212891%, 59.187317%)" offset="0.824219"/><stop stop-opacity="1" stop-color="rgb(75.448608%, 44.407654%, 58.323669%)" offset="0.828125"/><stop stop-opacity="1" stop-color="rgb(75.92926%, 45.602417%, 57.458496%)" offset="0.832031"/><stop stop-opacity="1" stop-color="rgb(76.409912%, 46.798706%, 56.594849%)" offset="0.835937"/><stop stop-opacity="1" stop-color="rgb(76.889038%, 47.993469%, 55.729675%)" offset="0.839844"/><stop stop-opacity="1" stop-color="rgb(77.36969%, 49.188232%, 54.866028%)" offset="0.84375"/><stop stop-opacity="1" stop-color="rgb(77.850342%, 50.382996%, 54.000854%)" offset="0.847656"/><stop stop-opacity="1" stop-color="rgb(78.330994%, 51.579285%, 53.135681%)" offset="0.851562"/><stop stop-opacity="1" stop-color="rgb(78.811646%, 52.774048%, 52.270508%)" offset="0.855469"/><stop stop-opacity="1" stop-color="rgb(79.292297%, 53.968811%, 51.40686%)" offset="0.859375"/><stop stop-opacity="1" stop-color="rgb(79.771423%, 55.163574%, 50.541687%)" offset="0.863281"/><stop stop-opacity="1" stop-color="rgb(80.252075%, 56.358337%, 49.67804%)" offset="0.867187"/><stop stop-opacity="1" stop-color="rgb(80.732727%, 57.553101%, 48.812866%)" offset="0.871094"/><stop stop-opacity="1" stop-color="rgb(81.213379%, 58.74939%, 47.949219%)" offset="0.875"/><stop stop-opacity="1" stop-color="rgb(81.694031%, 59.944153%, 47.084045%)" offset="0.878906"/><stop stop-opacity="1" stop-color="rgb(82.174683%, 61.138916%, 46.220398%)" offset="0.882813"/><stop stop-opacity="1" stop-color="rgb(82.655334%, 62.333679%, 45.355225%)" offset="0.886719"/><stop stop-opacity="1" stop-color="rgb(83.135986%, 63.529968%, 44.491577%)" offset="0.890625"/><stop stop-opacity="1" stop-color="rgb(83.615112%, 64.724731%, 43.626404%)" offset="0.894531"/><stop stop-opacity="1" stop-color="rgb(84.095764%, 65.919495%, 42.762756%)" offset="0.898438"/><stop stop-opacity="1" stop-color="rgb(84.576416%, 67.114258%, 41.897583%)" offset="0.902344"/><stop stop-opacity="1" stop-color="rgb(85.057068%, 68.310547%, 41.033936%)" offset="0.90625"/><stop stop-opacity="1" stop-color="rgb(85.53772%, 69.50531%, 40.168762%)" offset="0.910156"/><stop stop-opacity="1" stop-color="rgb(86.018372%, 70.700073%, 39.305115%)" offset="0.914063"/><stop stop-opacity="1" stop-color="rgb(85.229492%, 68.736267%, 40.724182%)" offset="0.917969"/><stop stop-opacity="1" stop-color="rgb(84.440613%, 66.773987%, 42.144775%)" offset="0.921875"/><stop stop-opacity="1" stop-color="rgb(83.125305%, 63.505554%, 44.508362%)" offset="0.925781"/><stop stop-opacity="1" stop-color="rgb(81.811523%, 60.237122%, 46.873474%)" offset="0.929688"/><stop stop-opacity="1" stop-color="rgb(80.497742%, 56.968689%, 49.237061%)" offset="0.933594"/><stop stop-opacity="1" stop-color="rgb(79.18396%, 53.700256%, 51.602173%)" offset="0.9375"/><stop stop-opacity="1" stop-color="rgb(77.870178%, 50.431824%, 53.965759%)" offset="0.941406"/><stop stop-opacity="1" stop-color="rgb(76.556396%, 47.163391%, 56.330872%)" offset="0.945312"/><stop stop-opacity="1" stop-color="rgb(75.241089%, 43.894958%, 58.694458%)" offset="0.949219"/><stop stop-opacity="1" stop-color="rgb(73.927307%, 40.626526%, 61.058044%)" offset="0.953125"/><stop stop-opacity="1" stop-color="rgb(72.613525%, 37.358093%, 63.421631%)" offset="0.957031"/><stop stop-opacity="1" stop-color="rgb(71.299744%, 34.089661%, 65.786743%)" offset="0.960938"/><stop stop-opacity="1" stop-color="rgb(69.985962%, 30.821228%, 68.15033%)" offset="0.964844"/><stop stop-opacity="1" stop-color="rgb(68.67218%, 27.552795%, 70.515442%)" offset="0.96875"/><stop stop-opacity="1" stop-color="rgb(67.358398%, 24.282837%, 72.879028%)" offset="0.972656"/><stop stop-opacity="1" stop-color="rgb(66.044617%, 21.014404%, 75.244141%)" offset="0.976562"/><stop stop-opacity="1" stop-color="rgb(64.729309%, 17.745972%, 77.607727%)" offset="0.980469"/><stop stop-opacity="1" stop-color="rgb(63.415527%, 14.477539%, 79.972839%)" offset="0.984375"/><stop stop-opacity="1" stop-color="rgb(62.101746%, 11.209106%, 82.336426%)" offset="0.988281"/><stop stop-opacity="1" stop-color="rgb(60.787964%, 7.940674%, 84.701538%)" offset="0.992188"/><stop stop-opacity="1" stop-color="rgb(59.593201%, 4.969788%, 86.849976%)" offset="0.996094"/><stop stop-opacity="1" stop-color="rgb(58.399963%, 1.998901%, 88.999939%)" offset="1"/></linearGradient></defs><g clip-path="url(#8b63ce80dc)"><g clip-path="url(#a8d924f9aa)"><path fill="url(#bcb0a879d0)" d="M 100.53125 87.820312 L 100.53125 277.414062 L 299.265625 277.414062 L 299.265625 87.820312 Z M 100.53125 87.820312 " fill-rule="nonzero"/></g></g><g fill="#9505e3" fill-opacity="1"><g transform="translate(152.879592, 176.054681)"><g><path d="M 8.09375 12.398438 C 7.464844 11.933594 7.421875 11.132812 7.757812 10.371094 C 7.96875 9.992188 7.886719 9.910156 8.304688 9.824219 C 8.179688 10.121094 8.09375 11.933594 8.09375 12.398438 Z M 11.46875 -26.773438 L 7.800781 -25.046875 C 6.578125 -24.414062 -1.6875 -20.027344 -1.6875 -18.804688 C -1.6875 -18.339844 -1.433594 -18.171875 -1.097656 -18.171875 C -0.84375 -18.171875 -0.546875 -18.300781 -0.296875 -18.425781 C 0.0429688 -18.636719 0.0859375 -18.722656 0.378906 -18.933594 C 0.71875 -19.144531 0.925781 -19.3125 1.222656 -19.480469 C 2.277344 -20.195312 3.332031 -20.828125 4.425781 -21.460938 L 9.445312 -24.078125 C 10.035156 -24.285156 10.625 -24.582031 11.171875 -24.878906 L 9.992188 -13.070312 C 9.824219 -11.679688 9.699219 -10.414062 9.699219 -8.980469 L 6.578125 -7.503906 C 6.03125 -7.253906 4.046875 -6.113281 4.046875 -5.480469 C 4.046875 -5.058594 4.214844 -4.933594 4.46875 -4.933594 C 5.019531 -4.933594 5.859375 -5.566406 5.902344 -5.566406 L 9.445312 -7.378906 L 8.898438 0.125 C 8.855469 0.589844 8.898438 1.011719 8.898438 1.433594 C 8.855469 2.023438 8.769531 1.941406 8.769531 2.613281 C 8.726562 3.289062 8.515625 7.210938 8.390625 7.632812 C 8.054688 8.6875 6.324219 8.433594 6.324219 11.722656 C 6.324219 12.523438 7.378906 14.039062 8.265625 14.039062 C 8.855469 14.039062 9.402344 13.410156 9.570312 11.511719 C 9.65625 10.371094 9.570312 8.476562 10.246094 8.011719 C 10.542969 7.84375 11.003906 7.632812 11.46875 7.421875 C 11.976562 7.125 12.269531 7 12.816406 6.789062 C 18.003906 4.511719 24.878906 3.878906 30.570312 3.878906 C 32.085938 3.878906 33.4375 3.964844 34.363281 4.132812 C 36.175781 4.425781 35.925781 4.890625 36.347656 5.1875 C 36.769531 4.636719 36.808594 5.058594 36.808594 4.175781 C 36.808594 2.953125 34.113281 2.570312 30.863281 2.570312 C 26.269531 2.570312 20.617188 3.289062 19.605469 3.5 C 17.078125 3.878906 14.503906 4.597656 12.226562 5.609375 C 11.59375 5.859375 10.667969 6.535156 9.992188 6.578125 L 11.34375 -8.179688 C 11.847656 -8.222656 12.269531 -8.433594 12.691406 -8.601562 C 14.96875 -9.488281 20.449219 -11.171875 22.601562 -11.171875 C 22.980469 -11.171875 23.0625 -10.964844 23.105469 -10.625 C 23.484375 -10.667969 23.484375 -10.710938 23.78125 -10.753906 C 24.035156 -11.847656 23.90625 -12.4375 22.472656 -12.4375 C 22.050781 -12.4375 21.589844 -12.398438 21 -12.3125 C 19.4375 -12.144531 16.023438 -11.171875 14.546875 -10.710938 C 13.703125 -10.457031 12.101562 -9.738281 11.46875 -9.65625 C 11.46875 -10.5 11.679688 -11.511719 11.722656 -12.269531 L 13.070312 -25.511719 C 13.578125 -26.4375 24.835938 -29.894531 26.015625 -30.230469 C 31.625 -31.582031 33.648438 -31.75 39.382812 -31.75 C 40.351562 -31.75 40.816406 -31.539062 41.53125 -31.414062 C 41.40625 -30.652344 40.605469 -29.851562 40.308594 -29.050781 C 41.449219 -29.179688 42.882812 -29.9375 42.882812 -31.539062 C 42.882812 -32.929688 40.648438 -33.351562 37.863281 -33.351562 C 33.902344 -33.351562 28.714844 -32.46875 27.363281 -32.128906 C 23.316406 -31.371094 18.722656 -29.769531 14.96875 -28.25 C 14.460938 -28.082031 13.660156 -27.660156 13.199219 -27.574219 C 13.410156 -30.019531 13.578125 -31.625 13.578125 -34.324219 C 13.578125 -35.039062 13.238281 -35.207031 12.777344 -35.460938 C 11.890625 -34.953125 12.1875 -34.953125 12.058594 -33.773438 C 12.015625 -33.058594 11.847656 -32.046875 11.847656 -31.414062 C 11.847656 -29.851562 11.46875 -28.378906 11.46875 -26.773438 Z M 11.46875 -26.773438 "/></g></g></g><g fill="#9505e3" fill-opacity="1"><g transform="translate(191.03814, 176.054681)"><g><path d="M 0.0859375 -3.246094 C 0.0859375 -0.507812 0.167969 4.679688 2.445312 4.679688 C 3.5 4.679688 4.300781 3.078125 4.765625 2.359375 C 5.691406 0.800781 6.832031 -2.152344 7.714844 -3.964844 C 7.925781 -4.386719 9.234375 -6.832031 9.234375 -7.082031 C 9.234375 -7.292969 9.066406 -7.546875 8.855469 -7.546875 C 8.644531 -7.546875 8.390625 -7.378906 8.136719 -6.871094 C 6.789062 -4.46875 5.566406 -1.519531 4.300781 0.925781 C 3.835938 1.898438 3.246094 3.035156 2.320312 3.542969 C 0.421875 -0.0859375 2.78125 -13.199219 3.964844 -17.457031 C 4.089844 -17.878906 5.1875 -20.324219 3.792969 -20.324219 C 2.699219 -20.324219 2.320312 -18.214844 1.941406 -16.992188 C 0.886719 -13.113281 0.0859375 -7.421875 0.0859375 -3.246094 Z M 0.0859375 -3.246094 "/></g></g></g><g fill="#9505e3" fill-opacity="1"><g transform="translate(198.459027, 176.054681)"><g><path d="M 3.5 0.167969 C 5.480469 0.167969 7.082031 -1.6875 8.09375 -2.742188 C 8.769531 -3.414062 11.300781 -6.242188 11.300781 -7.042969 C 11.300781 -7.421875 11.171875 -7.546875 11.003906 -7.546875 C 10.203125 -7.546875 7.96875 -4.554688 7.800781 -4.34375 C 7.167969 -3.542969 4.976562 -1.308594 3.625 -1.308594 C 2.488281 -1.308594 2.023438 -3.792969 2.023438 -5.058594 C 2.023438 -9.359375 3.710938 -11.257812 1.769531 -11.257812 C 0.925781 -11.257812 0.507812 -9.359375 0.378906 -8.476562 C -0.0859375 -6.324219 0 -3.414062 1.011719 -1.519531 C 1.476562 -0.71875 2.359375 0.167969 3.5 0.167969 Z M 2.152344 -16.570312 C 2.152344 -15.644531 2.699219 -15.222656 3.289062 -15.222656 C 4.132812 -15.222656 5.019531 -16.148438 4.214844 -17.710938 C 3.964844 -18.171875 3.667969 -18.339844 3.375 -18.339844 C 2.742188 -18.339844 2.152344 -17.539062 2.152344 -16.570312 Z M 2.152344 -16.570312 "/></g></g></g><g fill="#9505e3" fill-opacity="1"><g transform="translate(208.072452, 176.054681)"><g><path d="M -11.847656 -18.804688 C -11.847656 -18.214844 -11.425781 -18.089844 -10.964844 -18.089844 C -10.710938 -18.089844 -10.457031 -18.132812 -10.246094 -18.171875 C -9.867188 -18.972656 -10.289062 -18.804688 -9.234375 -19.226562 C -8.726562 -19.4375 -8.347656 -19.734375 -7.84375 -19.945312 C -5.226562 -20.957031 -2.824219 -21.671875 -0.0429688 -22.347656 C 0.378906 -22.472656 1.347656 -22.644531 1.601562 -22.726562 L 1.222656 -18.804688 C 1.179688 -18.257812 1.136719 -17.328125 1.054688 -16.78125 C 0.84375 -15.558594 0.800781 -9.867188 0.800781 -8.265625 L 0.675781 -6.28125 C 0.675781 -3.203125 0.546875 1.8125 0.800781 4.847656 C 0.800781 5.859375 0.84375 7.378906 1.941406 7.378906 C 3.035156 7.378906 2.402344 4.46875 2.402344 3.5 C 2.320312 1.644531 2.359375 -6.789062 2.488281 -8.054688 C 2.570312 -8.9375 2.488281 -10.835938 2.488281 -12.058594 C 2.488281 -12.648438 2.613281 -12.648438 2.613281 -13.199219 C 2.613281 -13.621094 2.570312 -14.125 2.613281 -14.503906 L 3.457031 -23.148438 C 4.46875 -23.359375 10.878906 -24.582031 13.199219 -24.582031 C 13.492188 -24.582031 13.703125 -24.582031 13.871094 -24.539062 C 14.378906 -24.414062 14.25 -24.582031 14.378906 -24.160156 C 15.980469 -24.160156 15.472656 -25.847656 13.492188 -25.847656 C 10.921875 -25.847656 8.433594 -25.425781 5.988281 -24.960938 C 5.355469 -24.878906 4.46875 -24.625 3.792969 -24.625 C 3.792969 -25.972656 4.636719 -24.878906 4.636719 -25.972656 C 4.636719 -26.226562 4.597656 -26.394531 4.597656 -26.523438 C 4.554688 -26.945312 4.636719 -26.605469 4.636719 -27.113281 C 4.636719 -27.785156 4.300781 -28.335938 3.835938 -28.335938 C 3.289062 -28.335938 2.613281 -27.574219 2.191406 -25.300781 C 1.898438 -23.867188 2.023438 -24.246094 0.253906 -23.78125 C -2.152344 -23.105469 -11.847656 -20.703125 -11.847656 -18.804688 Z M -11.847656 -18.804688 "/></g></g></g><g fill="#9505e3" fill-opacity="1"><g transform="translate(212.963496, 176.054681)"><g><path d="M 1.941406 -7.632812 C 2.234375 -8.6875 3.625 -10.332031 4.765625 -10.542969 C 4.636719 -9.191406 2.992188 -8.179688 1.941406 -7.632812 Z M 0.0429688 -6.621094 C 0.0429688 -5.4375 0 -4.386719 1.011719 -3.375 C 1.730469 -2.65625 2.570312 -2.359375 3.457031 -2.359375 C 6.03125 -2.359375 8.9375 -4.933594 10.5 -6.492188 C 10.878906 -6.957031 10.878906 -7 10.753906 -7.632812 C 9.488281 -7.632812 10.160156 -7.464844 8.433594 -6.113281 C 8.136719 -5.902344 8.011719 -5.734375 7.675781 -5.480469 C 6.832031 -4.847656 5.058594 -3.625 3.585938 -3.625 C 3.078125 -3.625 2.570312 -3.792969 2.191406 -4.175781 C 1.476562 -4.890625 1.558594 -5.566406 1.558594 -6.453125 C 2.867188 -6.535156 4.386719 -7.757812 5.058594 -8.515625 C 6.367188 -10.160156 6.367188 -11.847656 4.511719 -11.847656 C 2.488281 -11.847656 0.0429688 -8.726562 0.0429688 -6.621094 Z M 0.0429688 -6.621094 "/></g></g></g><g fill="#ffd700" fill-opacity="1"><g transform="translate(168.991897, 201.577165)"><g><path d="M 2.097656 -1.207031 L 2.097656 -2.824219 L 5.492188 -2.824219 L 5.492188 -3.953125 L 2.097656 -3.953125 L 2.097656 -5.441406 L 5.789062 -5.441406 L 5.789062 -6.636719 L 0.578125 -6.636719 L 0.578125 0 L 5.820312 0 L 5.820312 -1.207031 Z M 2.097656 -1.207031 "/></g></g></g><g fill="#ffd700" fill-opacity="1"><g transform="translate(177.55109, 201.577165)"><g><path d="M 5.480469 -6.636719 L 4.003906 -2.285156 C 3.882812 -1.917969 3.785156 -1.558594 3.683594 -1.1875 C 3.59375 -1.558594 3.484375 -1.917969 3.363281 -2.285156 L 1.898438 -6.636719 L 0.328125 -6.636719 L 2.554688 0 L 4.78125 0 L 7.007812 -6.636719 Z M 5.480469 -6.636719 "/></g></g></g><g fill="#ffd700" fill-opacity="1"><g transform="translate(187.117523, 201.577165)"><g><path d="M 2.097656 -1.207031 L 2.097656 -2.824219 L 5.492188 -2.824219 L 5.492188 -3.953125 L 2.097656 -3.953125 L 2.097656 -5.441406 L 5.789062 -5.441406 L 5.789062 -6.636719 L 0.578125 -6.636719 L 0.578125 0 L 5.820312 0 L 5.820312 -1.207031 Z M 2.097656 -1.207031 "/></g></g></g><g fill="#ffd700" fill-opacity="1"><g transform="translate(195.676716, 201.577165)"><g><path d="M 5.550781 -6.636719 L 5.550781 -1.078125 C 5.441406 -1.417969 5.3125 -1.757812 5.191406 -2.035156 L 3.09375 -6.636719 L 0.578125 -6.636719 L 0.578125 0 L 2.035156 0 L 2.035156 -5.550781 C 2.136719 -5.210938 2.265625 -4.871094 2.414062 -4.53125 L 4.492188 0 L 7.007812 0 L 7.007812 -6.636719 Z M 5.550781 -6.636719 "/></g></g></g><g fill="#ffd700" fill-opacity="1"><g transform="translate(205.502438, 201.577165)"><g><path d="M 6.21875 -6.636719 L 0.328125 -6.636719 L 0.328125 -5.441406 L 2.515625 -5.441406 L 2.515625 0 L 4.03125 0 L 4.03125 -5.441406 L 6.21875 -5.441406 Z M 6.21875 -6.636719 "/></g></g></g><g fill="#ffd700" fill-opacity="1"><g transform="translate(152.467691, 213.537701)"><g><path d="M 4.101562 -6.636719 L 0.578125 -6.636719 L 0.578125 0 L 2.105469 0 L 2.105469 -2.316406 L 4.101562 -2.316406 C 5.609375 -2.316406 6.210938 -3.285156 6.210938 -4.511719 C 6.210938 -5.671875 5.609375 -6.636719 4.101562 -6.636719 Z M 3.625 -3.492188 L 2.105469 -3.492188 L 2.105469 -5.460938 L 3.632812 -5.460938 C 4.371094 -5.460938 4.632812 -5.0625 4.632812 -4.503906 C 4.632812 -3.921875 4.363281 -3.492188 3.625 -3.492188 Z M 3.625 -3.492188 "/></g></g></g><g fill="#ffd700" fill-opacity="1"><g transform="translate(161.216364, 213.537701)"><g><path d="M 2.105469 -1.207031 L 2.105469 -6.636719 L 0.578125 -6.636719 L 0.578125 0 L 5.210938 0 L 5.210938 -1.207031 Z M 2.105469 -1.207031 "/></g></g></g><g fill="#ffd700" fill-opacity="1"><g transform="translate(168.858073, 213.537701)"><g><path d="M 5.761719 0 L 7.289062 0 L 4.953125 -6.636719 L 2.636719 -6.636719 L 0.300781 0 L 1.828125 0 L 2.304688 -1.359375 L 5.28125 -1.359375 Z M 2.714844 -2.527344 L 3.792969 -5.589844 L 4.871094 -2.527344 Z M 2.714844 -2.527344 "/></g></g></g><g fill="#ffd700" fill-opacity="1"><g transform="translate(178.673816, 213.537701)"><g><path d="M 5.550781 -6.636719 L 5.550781 -1.078125 C 5.441406 -1.417969 5.3125 -1.757812 5.191406 -2.035156 L 3.09375 -6.636719 L 0.578125 -6.636719 L 0.578125 0 L 2.035156 0 L 2.035156 -5.550781 C 2.136719 -5.210938 2.265625 -4.871094 2.414062 -4.53125 L 4.492188 0 L 7.007812 0 L 7.007812 -6.636719 Z M 5.550781 -6.636719 "/></g></g></g><g fill="#ffd700" fill-opacity="1"><g transform="translate(188.499538, 213.537701)"><g><path d="M 5.550781 -6.636719 L 5.550781 -1.078125 C 5.441406 -1.417969 5.3125 -1.757812 5.191406 -2.035156 L 3.09375 -6.636719 L 0.578125 -6.636719 L 0.578125 0 L 2.035156 0 L 2.035156 -5.550781 C 2.136719 -5.210938 2.265625 -4.871094 2.414062 -4.53125 L 4.492188 0 L 7.007812 0 L 7.007812 -6.636719 Z M 5.550781 -6.636719 "/></g></g></g><g fill="#ffd700" fill-opacity="1"><g transform="translate(198.32526, 213.537701)"><g><path d="M 2.097656 -1.207031 L 2.097656 -2.824219 L 5.492188 -2.824219 L 5.492188 -3.953125 L 2.097656 -3.953125 L 2.097656 -5.441406 L 5.789062 -5.441406 L 5.789062 -6.636719 L 0.578125 -6.636719 L 0.578125 0 L 5.820312 0 L 5.820312 -1.207031 Z M 2.097656 -1.207031 "/></g></g></g><g fill="#ffd700" fill-opacity="1"><g transform="translate(206.884453, 213.537701)"><g><path d="M 6.097656 -1.617188 C 6.097656 -2.574219 5.570312 -2.914062 4.890625 -3.085938 C 5.679688 -3.253906 6.277344 -3.882812 6.277344 -4.820312 C 6.277344 -5.898438 5.550781 -6.636719 4.082031 -6.636719 L 0.578125 -6.636719 L 0.578125 0 L 2.105469 0 L 2.105469 -2.566406 L 3.472656 -2.566406 C 4.132812 -2.566406 4.582031 -2.246094 4.582031 -1.496094 L 4.582031 -1.148438 C 4.582031 -0.597656 4.632812 -0.238281 4.710938 0 L 6.230469 0 C 6.160156 -0.320312 6.097656 -0.617188 6.097656 -1.167969 Z M 3.742188 -3.652344 L 2.105469 -3.652344 L 2.105469 -5.460938 L 3.742188 -5.460938 C 4.402344 -5.460938 4.691406 -5.160156 4.691406 -4.601562 C 4.691406 -3.984375 4.433594 -3.652344 3.742188 -3.652344 Z M 3.742188 -3.652344 "/></g></g></g><g fill="#ffd700" fill-opacity="1"><g transform="translate(215.862497, 213.537701)"><g><path d="M 0.390625 -2.1875 C 0.4375 -0.976562 1.1875 0.167969 3.375 0.167969 C 5.449219 0.167969 6.257812 -0.679688 6.257812 -1.988281 C 6.257812 -3.144531 5.582031 -3.785156 4.234375 -3.933594 L 2.84375 -4.101562 C 2.296875 -4.164062 2.066406 -4.453125 2.066406 -4.839844 C 2.066406 -5.359375 2.496094 -5.691406 3.304688 -5.691406 C 4.183594 -5.691406 4.621094 -5.289062 4.703125 -4.671875 L 6.1875 -4.671875 C 6.109375 -5.851562 5.289062 -6.808594 3.304688 -6.808594 C 1.4375 -6.808594 0.539062 -5.949219 0.539062 -4.75 C 0.539062 -3.652344 1.199219 -3.003906 2.375 -2.863281 L 3.84375 -2.675781 C 4.433594 -2.59375 4.730469 -2.335938 4.730469 -1.835938 C 4.730469 -1.308594 4.402344 -0.957031 3.394531 -0.957031 C 2.347656 -0.957031 1.90625 -1.476562 1.867188 -2.1875 Z M 0.390625 -2.1875 "/></g></g></g><g fill="#ffd700" fill-opacity="1"><g transform="translate(170.984084, 254.852122)"><g/></g></g><g fill="#ffd700" fill-opacity="1"><g transform="translate(175.753615, 254.852122)"><g><path d="M 0.628906 0 L 6.390625 0 L 6.390625 -1.1875 L 2.675781 -1.1875 L 4.203125 -2.265625 C 5.71875 -3.234375 6.257812 -3.972656 6.257812 -4.863281 C 6.257812 -5.910156 5.621094 -6.808594 3.671875 -6.808594 C 1.359375 -6.808594 0.589844 -5.359375 0.558594 -3.984375 L 2.097656 -3.984375 C 2.117188 -4.910156 2.484375 -5.648438 3.625 -5.648438 C 4.402344 -5.648438 4.710938 -5.242188 4.710938 -4.75 C 4.710938 -4.324219 4.53125 -3.984375 4.003906 -3.605469 L 0.628906 -1.1875 Z M 0.628906 0 "/></g></g></g><g fill="#ffd700" fill-opacity="1"><g transform="translate(184.881247, 254.852122)"><g><path d="M 3.59375 0.167969 C 5.941406 0.167969 6.816406 -1.488281 6.816406 -3.3125 C 6.816406 -5.109375 5.941406 -6.808594 3.59375 -6.808594 C 1.257812 -6.808594 0.378906 -5.121094 0.378906 -3.3125 C 0.378906 -1.476562 1.257812 0.167969 3.59375 0.167969 Z M 1.957031 -3.3125 C 1.957031 -4.78125 2.335938 -5.570312 3.59375 -5.570312 C 4.863281 -5.570312 5.242188 -4.78125 5.242188 -3.3125 C 5.242188 -1.867188 4.863281 -1.078125 3.59375 -1.078125 C 2.335938 -1.078125 1.957031 -1.867188 1.957031 -3.3125 Z M 1.957031 -3.3125 "/></g></g></g><g fill="#ffd700" fill-opacity="1"><g transform="translate(194.318031, 254.852122)"><g><path d="M 0.628906 0 L 6.390625 0 L 6.390625 -1.1875 L 2.675781 -1.1875 L 4.203125 -2.265625 C 5.71875 -3.234375 6.257812 -3.972656 6.257812 -4.863281 C 6.257812 -5.910156 5.621094 -6.808594 3.671875 -6.808594 C 1.359375 -6.808594 0.589844 -5.359375 0.558594 -3.984375 L 2.097656 -3.984375 C 2.117188 -4.910156 2.484375 -5.648438 3.625 -5.648438 C 4.402344 -5.648438 4.710938 -5.242188 4.710938 -4.75 C 4.710938 -4.324219 4.53125 -3.984375 4.003906 -3.605469 L 0.628906 -1.1875 Z M 0.628906 0 "/></g></g></g><g fill="#ffd700" fill-opacity="1"><g transform="translate(203.445663, 254.852122)"><g><path d="M 0.390625 -2.15625 C 0.410156 -0.6875 1.4375 0.167969 3.292969 0.167969 C 5.359375 0.167969 6.179688 -0.847656 6.179688 -2.117188 C 6.179688 -3.613281 4.980469 -3.992188 4.242188 -3.992188 C 3.894531 -3.992188 3.695312 -3.964844 3.542969 -3.933594 L 5.78125 -5.449219 L 5.78125 -6.636719 L 0.667969 -6.636719 L 0.667969 -5.449219 L 4.074219 -5.449219 L 1.777344 -3.894531 L 2.347656 -2.964844 C 2.664062 -3.15625 2.964844 -3.273438 3.433594 -3.273438 C 4.121094 -3.273438 4.59375 -2.863281 4.59375 -2.15625 C 4.59375 -1.378906 4.113281 -0.976562 3.292969 -0.976562 C 2.484375 -0.976562 1.964844 -1.386719 1.925781 -2.15625 Z M 0.390625 -2.15625 "/></g></g></g></svg>